<svg width="300" height="300" xmlns="http://www.w3.org/2000/svg">
  <g>
    <title>Layer 1</title>
     <g id="svg_1">
        <path id="svg_2" fill="#E62836" d="m78.86075,29.27416c2.629,-0.097 4.718,-0.078 7.331,-0.003c20.665,-0.912 45.133,8.283 62.219,19.803c11.987,8.082 22.464,19.821 22.955,35.021c0.149,4.586 -0.317,8.982 -0.655,13.577c5.564,0.775 15.275,3.774 18.902,8.389c1.6,2.015 2.283,4.609 1.883,7.151c-1.888,12.494 -39.086,30.732 -51.189,31.921c-2.183,0.215 -9.689,1.739 -11.005,-0.167c2.938,-1.544 7.021,-3.454 9.794,-4.984c11.887,-6.622 22.881,-14.731 32.717,-24.133c-12.113,1.368 -18.527,2.075 -29.274,9.132c-0.076,-1.979 1.38,-7.64 2.314,-9.5c0.702,-1.398 1.693,-5.252 2.15,-6.105c0.44,-0.336 0.615,-0.6 0.842,-1.111c3.44,-8.135 4.3,-20.453 1.159,-28.733c-4.871,-12.843 -15.365,-20.856 -26.471,-27.837c-8.619,-5.387 -17.529,-10.296 -26.689,-14.703c-4.215,-2.009 -8.355,-3.658 -12.427,-5.552c-1.558,-0.532 -3.089,-1.401 -4.556,-2.166z"/>
        <path id="svg_3" fill="#E62836" d="m78.86075,29.27416c2.629,-0.097 4.718,-0.078 7.331,-0.003l-0.203,0.056c-1.332,0.36 -1.644,0.071 -2.866,0.838l-0.005,0.42l0.737,0.448c-0.317,0.362 -0.155,0.247 -0.438,0.407c-1.558,-0.532 -3.089,-1.401 -4.556,-2.166z"/>
        <path id="svg_4" fill="#000" d="m57.35475,171.39216c2.92,-3.953 12.491,-9.683 16.81,-12.908c22.844,-17.059 67.909,-47.017 74.301,-75.994c2.024,5.896 1.406,12.759 0.336,18.807c-0.471,2.662 -1.513,5.377 -1.799,8.079c-0.457,0.853 -1.448,4.707 -2.15,6.105c-0.934,1.86 -2.39,7.521 -2.314,9.5l-1.51,1.175c-19.863,16.074 -45.372,28.363 -68.203,39.527c-1.231,0.602 -14.271,5.834 -15.02,5.916l-0.451,-0.207z"/>
        <path id="svg_5" fill="#000" d="m203.99675,41.99616c6.683,1.191 15.632,7.272 20.948,11.19c35.761,26.356 40.788,74.966 18.92,111.935c-1.649,2.789 -3.307,5.866 -5.336,8.455c-1.241,0.337 -8.979,0.15 -10.621,0.13c10.258,-15.405 15.933,-29.016 17.971,-47.155c3.501,-31.175 -9.811,-59.586 -34.111,-78.829c-1.651,-1.307 -6.76,-4.314 -7.771,-5.726z"/>
        <path id="svg_6" fill="#000" d="m53.34975,166.76316c-5.693,-6.844 -11.644,-21.799 -13.633,-30.549c-3.829,-16.393 -2.317,-33.446 3.632,-49.12c3.587,-9.449 8.939,-19.16 15.706,-26.664c4.765,-5.285 19.717,-18.701 26.268,-20.082c-0.41,0.789 -8.575,7.181 -10.443,8.81c-5.919,5.163 -17.983,23.101 -19.68,30.05c-1.072,1.839 -1.771,4.263 -2.399,6.268c-6.857,21.893 -6.657,47.211 3.358,68.105c1.423,2.966 2.914,5.773 4.512,8.682c-2.314,2.14 -4.238,3.789 -7.321,4.5z"/>
        <path id="svg_7" fill="#E62836" d="m218.38675,8.22516c0.49,-0.007 0.569,0.022 1.057,0.094l0.116,0.484c-0.907,2.1 -6.374,7.209 -8.19,8.845c-15.335,13.814 -29.396,29.698 -34.593,50.198c-0.433,1.709 -1.91,9.088 -3.012,9.8c-0.607,-0.595 -1.962,-4.918 -2.369,-6.067c-1.639,-4.22 -4.992,-10.084 -7.603,-13.628c8.85,-16.027 21.518,-30.863 36.85,-41.261c3.308,-2.243 13.668,-6.807 17.744,-8.465z"/>
        <path id="svg_8" fill="#000" d="m156.20075,17.19416c7.379,-0.141 13.495,5.688 13.707,13.065c0.212,7.378 -5.558,13.549 -12.933,13.832c-7.476,0.287 -13.75,-5.58 -13.965,-13.058c-0.215,-7.478 5.711,-13.696 13.191,-13.839z"/>
      </g>
  </g>
</svg>

